<svg width="119" height="63" viewBox="0 0 119 63" fill="none" xmlns="http://www.w3.org/2000/svg">
<circle cx="22.5" cy="22.5" r="22.5" fill="#3E4251"/>
<path d="M20.547 20.5446C20.0274 20.6352 19.5466 20.8788 19.1662 21.2442C18.7858 21.6096 18.5231 22.0801 18.4116 22.5957C18.3001 23.1112 18.345 23.6483 18.5405 24.1382C18.736 24.6281 19.0732 25.0485 19.509 25.3457" stroke="white" stroke-width="2" stroke-miterlimit="10" stroke-linecap="square"/>
<path d="M15.7788 19.5984C16.0215 20.2074 16.3901 20.7582 16.8606 21.2146C17.3311 21.6711 17.8928 22.023 18.5088 22.2471" stroke="white" stroke-width="2" stroke-miterlimit="10" stroke-linecap="square"/>
<path d="M26.4844 15.927C26.7079 15.3176 26.7009 14.6474 26.4648 14.0427C26.2286 13.438 25.7796 12.9405 25.2022 12.6437C24.6248 12.347 23.9589 12.2716 23.3298 12.4316C22.7006 12.5916 22.1517 12.9761 21.7862 13.5126C21.757 13.5013 21.7302 13.4872 21.7008 13.4765C20.8542 13.1673 19.9361 13.1102 19.0577 13.3121C18.1793 13.5139 17.3782 13.9661 16.7516 14.6139C16.1249 15.2617 15.6995 16.0773 15.5268 16.9619C15.3541 17.8465 15.4416 18.7622 15.7787 19.5981C15.3845 19.6914 15.017 19.8738 14.7042 20.1312C14.3915 20.3886 14.1419 20.7142 13.9745 21.083C13.8071 21.4519 13.7264 21.8541 13.7385 22.259C13.7507 22.6639 13.8554 23.0606 14.0447 23.4187C13.6398 23.9543 13.3553 24.5709 13.2105 25.2265C13.0657 25.8821 13.0641 26.5612 13.2058 27.2175C13.3475 27.8738 13.6291 28.4918 14.0314 29.0293C14.4338 29.5668 14.9474 30.0111 15.5371 30.332C16.1269 30.6528 16.7789 30.8427 17.4488 30.8885C18.1186 30.9343 18.7904 30.8351 19.4184 30.5975C20.0464 30.36 20.6157 29.9897 21.0875 29.512C21.5593 29.0343 21.9224 28.4605 22.1522 27.8296L25.2844 28.9696L25.9164 30.3248" stroke="white" stroke-width="2" stroke-miterlimit="10" stroke-linecap="square"/>
<path d="M30.2879 18.3144L28.0783 19.3448L25.5725 18.4327L24.8885 20.3121" stroke="white" stroke-width="2" stroke-miterlimit="10" stroke-linecap="square"/>
<path d="M28.3612 24.4143L23.9761 22.8182L23.064 25.324" stroke="white" stroke-width="2" stroke-miterlimit="10" stroke-linecap="square"/>
<path d="M26.0237 32.7858C26.7156 33.0376 27.4807 32.6809 27.7326 31.9889C27.9844 31.297 27.6277 30.5318 26.9357 30.28C26.2437 30.0281 25.4786 30.3849 25.2268 31.0769C24.9749 31.7688 25.3317 32.5339 26.0237 32.7858Z" stroke="white" stroke-width="2" stroke-miterlimit="10" stroke-linecap="square"/>
<path d="M29.1581 26.1227C29.8501 26.3746 30.6152 26.0178 30.867 25.3258C31.1189 24.6339 30.7621 23.8688 30.0702 23.6169C29.3782 23.3651 28.6131 23.7218 28.3612 24.4138C28.1094 25.1057 28.4662 25.8709 29.1581 26.1227Z" stroke="white" stroke-width="2" stroke-miterlimit="10" stroke-linecap="square"/>
<path d="M31.04 19.0039C31.7319 19.2558 32.497 18.899 32.7489 18.2071C33.0007 17.5151 32.644 16.75 31.952 16.4981C31.26 16.2463 30.4949 16.6031 30.2431 17.295C29.9912 17.987 30.348 18.7521 31.04 19.0039Z" stroke="white" stroke-width="2" stroke-miterlimit="10" stroke-linecap="square"/>
<path d="M62.2352 26.9883V33H58.7195V15.9375H65.3758C66.657 15.9375 67.782 16.1719 68.7508 16.6406C69.7273 17.1094 70.4773 17.7773 71.0008 18.6445C71.5242 19.5039 71.7859 20.4844 71.7859 21.5859C71.7859 23.2578 71.2117 24.5781 70.0633 25.5469C68.9227 26.5078 67.3406 26.9883 65.3172 26.9883H62.2352ZM62.2352 24.1406H65.3758C66.3055 24.1406 67.0125 23.9219 67.4969 23.4844C67.9891 23.0469 68.2352 22.4219 68.2352 21.6094C68.2352 20.7734 67.9891 20.0977 67.4969 19.582C67.0047 19.0664 66.325 18.8008 65.4578 18.7852H62.2352V24.1406ZM83.6055 15.9375L87.9883 28.3125L92.3477 15.9375H96.9648V33H93.4375V28.3359L93.7891 20.2852L89.1836 33H86.7695L82.1758 20.2969L82.5273 28.3359V33H79.0117V15.9375H83.6055ZM108.351 26.9883V33H104.835V15.9375H111.491C112.773 15.9375 113.898 16.1719 114.866 16.6406C115.843 17.1094 116.593 17.7773 117.116 18.6445C117.64 19.5039 117.902 20.4844 117.902 21.5859C117.902 23.2578 117.327 24.5781 116.179 25.5469C115.038 26.5078 113.456 26.9883 111.433 26.9883H108.351ZM108.351 24.1406H111.491C112.421 24.1406 113.128 23.9219 113.612 23.4844C114.105 23.0469 114.351 22.4219 114.351 21.6094C114.351 20.7734 114.105 20.0977 113.612 19.582C113.12 19.0664 112.441 18.8008 111.573 18.7852H108.351V24.1406Z" fill="#3E4251"/>
<path d="M2.36523 56.6602V60H1.24023V51.4688H4.38672C5.32031 51.4688 6.05078 51.707 6.57812 52.1836C7.10938 52.6602 7.375 53.291 7.375 54.0762C7.375 54.9043 7.11523 55.543 6.5957 55.9922C6.08008 56.4375 5.33984 56.6602 4.375 56.6602H2.36523ZM2.36523 55.7402H4.38672C4.98828 55.7402 5.44922 55.5996 5.76953 55.3184C6.08984 55.0332 6.25 54.623 6.25 54.0879C6.25 53.5801 6.08984 53.1738 5.76953 52.8691C5.44922 52.5645 5.00977 52.4062 4.45117 52.3945H2.36523V55.7402ZM9.81836 60H8.73438V53.6602H9.81836V60ZM8.64648 51.9785C8.64648 51.8027 8.69922 51.6543 8.80469 51.5332C8.91406 51.4121 9.07422 51.3516 9.28516 51.3516C9.49609 51.3516 9.65625 51.4121 9.76562 51.5332C9.875 51.6543 9.92969 51.8027 9.92969 51.9785C9.92969 52.1543 9.875 52.3008 9.76562 52.418C9.65625 52.5352 9.49609 52.5938 9.28516 52.5938C9.07422 52.5938 8.91406 52.5352 8.80469 52.418C8.69922 52.3008 8.64648 52.1543 8.64648 51.9785ZM12.5781 53.6602L12.6074 54.3633C13.0723 53.8164 13.6992 53.543 14.4883 53.543C15.375 53.543 15.9785 53.8828 16.2988 54.5625C16.5098 54.2578 16.7832 54.0117 17.1191 53.8242C17.459 53.6367 17.8594 53.543 18.3203 53.543C19.7109 53.543 20.418 54.2793 20.4414 55.752V60H19.3574V55.8164C19.3574 55.3633 19.2539 55.0254 19.0469 54.8027C18.8398 54.5762 18.4922 54.4629 18.0039 54.4629C17.6016 54.4629 17.2676 54.584 17.002 54.8262C16.7363 55.0645 16.582 55.3867 16.5391 55.793V60H15.4492V55.8457C15.4492 54.9238 14.998 54.4629 14.0957 54.4629C13.3848 54.4629 12.8984 54.7656 12.6367 55.3711V60H11.5527V53.6602H12.5781ZM27.4375 56.9004C27.4375 57.8652 27.2168 58.6426 26.7754 59.2324C26.334 59.8223 25.7363 60.1172 24.9824 60.1172C24.2129 60.1172 23.6074 59.873 23.166 59.3848V62.4375H22.082V53.6602H23.0723L23.125 54.3633C23.5664 53.8164 24.1797 53.543 24.9648 53.543C25.7266 53.543 26.3281 53.8301 26.7695 54.4043C27.2148 54.9785 27.4375 55.7773 27.4375 56.8008V56.9004ZM26.3535 56.7773C26.3535 56.0625 26.2012 55.498 25.8965 55.084C25.5918 54.6699 25.1738 54.4629 24.6426 54.4629C23.9863 54.4629 23.4941 54.7539 23.166 55.3359V58.3652C23.4902 58.9434 23.9863 59.2324 24.6543 59.2324C25.1738 59.2324 25.5859 59.0273 25.8906 58.6172C26.1992 58.2031 26.3535 57.5898 26.3535 56.7773ZM32.8164 53.6602L32.8457 54.3633C33.3105 53.8164 33.9375 53.543 34.7266 53.543C35.6133 53.543 36.2168 53.8828 36.5371 54.5625C36.748 54.2578 37.0215 54.0117 37.3574 53.8242C37.6973 53.6367 38.0977 53.543 38.5586 53.543C39.9492 53.543 40.6562 54.2793 40.6797 55.752V60H39.5957V55.8164C39.5957 55.3633 39.4922 55.0254 39.2852 54.8027C39.0781 54.5762 38.7305 54.4629 38.2422 54.4629C37.8398 54.4629 37.5059 54.584 37.2402 54.8262C36.9746 55.0645 36.8203 55.3867 36.7773 55.793V60H35.6875V55.8457C35.6875 54.9238 35.2363 54.4629 34.334 54.4629C33.623 54.4629 33.1367 54.7656 32.875 55.3711V60H31.791V53.6602H32.8164ZM44.3945 58.4121L45.8711 53.6602H47.0312L44.4824 60.9785C44.0879 62.0332 43.4609 62.5605 42.6016 62.5605L42.3965 62.543L41.9922 62.4668V61.5879L42.2852 61.6113C42.6523 61.6113 42.9375 61.5371 43.1406 61.3887C43.3477 61.2402 43.5176 60.9688 43.6504 60.5742L43.8906 59.9297L41.6289 53.6602H42.8125L44.3945 58.4121ZM56.3359 56.9004C56.3359 57.8652 56.1152 58.6426 55.6738 59.2324C55.2324 59.8223 54.6348 60.1172 53.8809 60.1172C53.1113 60.1172 52.5059 59.873 52.0645 59.3848V62.4375H50.9805V53.6602H51.9707L52.0234 54.3633C52.4648 53.8164 53.0781 53.543 53.8633 53.543C54.625 53.543 55.2266 53.8301 55.668 54.4043C56.1133 54.9785 56.3359 55.7773 56.3359 56.8008V56.9004ZM55.252 56.7773C55.252 56.0625 55.0996 55.498 54.7949 55.084C54.4902 54.6699 54.0723 54.4629 53.541 54.4629C52.8848 54.4629 52.3926 54.7539 52.0645 55.3359V58.3652C52.3887 58.9434 52.8848 59.2324 53.5527 59.2324C54.0723 59.2324 54.4844 59.0273 54.7891 58.6172C55.0977 58.2031 55.252 57.5898 55.252 56.7773ZM61.6328 59.373C61.2109 59.8691 60.5918 60.1172 59.7754 60.1172C59.0996 60.1172 58.584 59.9219 58.2285 59.5312C57.877 59.1367 57.6992 58.5547 57.6953 57.7852V53.6602H58.7793V57.7559C58.7793 58.7168 59.1699 59.1973 59.9512 59.1973C60.7793 59.1973 61.3301 58.8887 61.6035 58.2715V53.6602H62.6875V60H61.6562L61.6328 59.373ZM65.5176 60H64.4336V51H65.5176V60ZM68.4355 60H67.3516V51H68.4355V60ZM76.2168 54.6328C76.0527 54.6055 75.875 54.5918 75.6836 54.5918C74.9727 54.5918 74.4902 54.8945 74.2363 55.5V60H73.1523V53.6602H74.207L74.2246 54.3926C74.5801 53.8262 75.084 53.543 75.7363 53.543C75.9473 53.543 76.1074 53.5703 76.2168 53.625V54.6328ZM79.7324 60.1172C78.873 60.1172 78.1738 59.8359 77.6348 59.2734C77.0957 58.707 76.8262 57.9512 76.8262 57.0059V56.8066C76.8262 56.1777 76.9453 55.6172 77.1836 55.125C77.4258 54.6289 77.7617 54.2422 78.1914 53.9648C78.625 53.6836 79.0938 53.543 79.5977 53.543C80.4219 53.543 81.0625 53.8145 81.5195 54.3574C81.9766 54.9004 82.2051 55.6777 82.2051 56.6895V57.1406H77.9102C77.9258 57.7656 78.1074 58.2715 78.4551 58.6582C78.8066 59.041 79.252 59.2324 79.791 59.2324C80.1738 59.2324 80.498 59.1543 80.7637 58.998C81.0293 58.8418 81.2617 58.6348 81.4609 58.377L82.123 58.8926C81.5918 59.709 80.7949 60.1172 79.7324 60.1172ZM79.5977 54.4336C79.1602 54.4336 78.793 54.5938 78.4961 54.9141C78.1992 55.2305 78.0156 55.6758 77.9453 56.25H81.1211V56.168C81.0898 55.6172 80.9414 55.1914 80.6758 54.8906C80.4102 54.5859 80.0508 54.4336 79.5977 54.4336ZM83.2012 56.7773C83.2012 55.7812 83.4297 54.9941 83.8867 54.416C84.3438 53.834 84.957 53.543 85.7266 53.543C86.4766 53.543 87.0684 53.7949 87.502 54.2988L87.5488 53.6602H88.5449V62.4375H87.4609V59.4141C87.0234 59.8828 86.4414 60.1172 85.7148 60.1172C84.9492 60.1172 84.3379 59.8203 83.8809 59.2266C83.4277 58.6289 83.2012 57.8379 83.2012 56.8535V56.7773ZM84.2852 56.9004C84.2852 57.627 84.4375 58.1973 84.7422 58.6113C85.0508 59.0254 85.4648 59.2324 85.9844 59.2324C86.6289 59.2324 87.1211 58.9473 87.4609 58.377V55.2715C87.1172 54.7129 86.6289 54.4336 85.9961 54.4336C85.4727 54.4336 85.0566 54.6426 84.748 55.0605C84.4395 55.4746 84.2852 56.0879 84.2852 56.9004ZM94.1992 59.373C93.7773 59.8691 93.1582 60.1172 92.3418 60.1172C91.666 60.1172 91.1504 59.9219 90.7949 59.5312C90.4434 59.1367 90.2656 58.5547 90.2617 57.7852V53.6602H91.3457V57.7559C91.3457 58.7168 91.7363 59.1973 92.5176 59.1973C93.3457 59.1973 93.8965 58.8887 94.1699 58.2715V53.6602H95.2539V60H94.2227L94.1992 59.373ZM99.5371 60.1172C98.6777 60.1172 97.9785 59.8359 97.4395 59.2734C96.9004 58.707 96.6309 57.9512 96.6309 57.0059V56.8066C96.6309 56.1777 96.75 55.6172 96.9883 55.125C97.2305 54.6289 97.5664 54.2422 97.9961 53.9648C98.4297 53.6836 98.8984 53.543 99.4023 53.543C100.227 53.543 100.867 53.8145 101.324 54.3574C101.781 54.9004 102.01 55.6777 102.01 56.6895V57.1406H97.7148C97.7305 57.7656 97.9121 58.2715 98.2598 58.6582C98.6113 59.041 99.0566 59.2324 99.5957 59.2324C99.9785 59.2324 100.303 59.1543 100.568 58.998C100.834 58.8418 101.066 58.6348 101.266 58.377L101.928 58.8926C101.396 59.709 100.6 60.1172 99.5371 60.1172ZM99.4023 54.4336C98.9648 54.4336 98.5977 54.5938 98.3008 54.9141C98.0039 55.2305 97.8203 55.6758 97.75 56.25H100.926V56.168C100.895 55.6172 100.746 55.1914 100.48 54.8906C100.215 54.5859 99.8555 54.4336 99.4023 54.4336ZM106.961 58.3184C106.961 58.0254 106.85 57.7988 106.627 57.6387C106.408 57.4746 106.023 57.334 105.473 57.2168C104.926 57.0996 104.49 56.959 104.166 56.7949C103.846 56.6309 103.607 56.4355 103.451 56.209C103.299 55.9824 103.223 55.7129 103.223 55.4004C103.223 54.8809 103.441 54.4414 103.879 54.082C104.32 53.7227 104.883 53.543 105.566 53.543C106.285 53.543 106.867 53.7285 107.312 54.0996C107.762 54.4707 107.986 54.9453 107.986 55.5234H106.896C106.896 55.2266 106.77 54.9707 106.516 54.7559C106.266 54.541 105.949 54.4336 105.566 54.4336C105.172 54.4336 104.863 54.5195 104.641 54.6914C104.418 54.8633 104.307 55.0879 104.307 55.3652C104.307 55.627 104.41 55.8242 104.617 55.957C104.824 56.0898 105.197 56.2168 105.736 56.3379C106.279 56.459 106.719 56.6035 107.055 56.7715C107.391 56.9395 107.639 57.1426 107.799 57.3809C107.963 57.6152 108.045 57.9023 108.045 58.2422C108.045 58.8086 107.818 59.2637 107.365 59.6074C106.912 59.9473 106.324 60.1172 105.602 60.1172C105.094 60.1172 104.645 60.0273 104.254 59.8477C103.863 59.668 103.557 59.418 103.334 59.0977C103.115 58.7734 103.006 58.4238 103.006 58.0488H104.09C104.109 58.4121 104.254 58.7012 104.523 58.916C104.797 59.127 105.156 59.2324 105.602 59.2324C106.012 59.2324 106.34 59.1504 106.586 58.9863C106.836 58.8184 106.961 58.5957 106.961 58.3184ZM110.928 52.125V53.6602H112.111V54.498H110.928V58.4297C110.928 58.6836 110.98 58.875 111.086 59.0039C111.191 59.1289 111.371 59.1914 111.625 59.1914C111.75 59.1914 111.922 59.168 112.141 59.1211V60C111.855 60.0781 111.578 60.1172 111.309 60.1172C110.824 60.1172 110.459 59.9707 110.213 59.6777C109.967 59.3848 109.844 58.9688 109.844 58.4297V54.498H108.689V53.6602H109.844V52.125H110.928ZM117.074 58.3184C117.074 58.0254 116.963 57.7988 116.74 57.6387C116.521 57.4746 116.137 57.334 115.586 57.2168C115.039 57.0996 114.604 56.959 114.279 56.7949C113.959 56.6309 113.721 56.4355 113.564 56.209C113.412 55.9824 113.336 55.7129 113.336 55.4004C113.336 54.8809 113.555 54.4414 113.992 54.082C114.434 53.7227 114.996 53.543 115.68 53.543C116.398 53.543 116.98 53.7285 117.426 54.0996C117.875 54.4707 118.1 54.9453 118.1 55.5234H117.01C117.01 55.2266 116.883 54.9707 116.629 54.7559C116.379 54.541 116.062 54.4336 115.68 54.4336C115.285 54.4336 114.977 54.5195 114.754 54.6914C114.531 54.8633 114.42 55.0879 114.42 55.3652C114.42 55.627 114.523 55.8242 114.73 55.957C114.938 56.0898 115.311 56.2168 115.85 56.3379C116.393 56.459 116.832 56.6035 117.168 56.7715C117.504 56.9395 117.752 57.1426 117.912 57.3809C118.076 57.6152 118.158 57.9023 118.158 58.2422C118.158 58.8086 117.932 59.2637 117.479 59.6074C117.025 59.9473 116.438 60.1172 115.715 60.1172C115.207 60.1172 114.758 60.0273 114.367 59.8477C113.977 59.668 113.67 59.418 113.447 59.0977C113.229 58.7734 113.119 58.4238 113.119 58.0488H114.203C114.223 58.4121 114.367 58.7012 114.637 58.916C114.91 59.127 115.27 59.2324 115.715 59.2324C116.125 59.2324 116.453 59.1504 116.699 58.9863C116.949 58.8184 117.074 58.5957 117.074 58.3184Z" fill="#959BB0"/>
</svg>
